<svg version="1.1" id="Layer_1" xmlns="http://www.w3.org/2000/svg" xmlns:xlink="http://www.w3.org/1999/xlink" x="0px" y="0px"
	 width="100%" viewBox="0 0 64 64" enable-background="new 0 0 64 64" xml:space="preserve">
<path fill="#fff0" opacity="1.000000" stroke="none" 
	d="
M39.000011,65.000000 
	C26.024467,65.000000 13.548928,65.000000 1.036694,65.000000 
	C1.036694,43.732925 1.036694,22.465776 1.036694,1.099313 
	C22.224968,1.099313 43.450554,1.099313 64.838074,1.099313 
	C64.838074,22.332338 64.838074,43.666061 64.838074,65.000000 
	C56.466721,65.000000 47.983368,65.000000 39.000011,65.000000 
M39.931183,59.996967 
	C44.738232,57.520130 49.733891,61.728081 54.761459,59.422768 
	C54.761459,57.854637 54.761459,56.125320 54.761459,54.200249 
	C52.127506,54.053429 49.712826,53.918831 47.311745,53.784992 
	C47.311745,51.387325 47.311745,49.329830 47.311745,46.789490 
	C51.683956,46.789490 55.750599,46.789490 59.612091,46.789490 
	C59.612091,37.229012 59.612091,28.168091 59.612091,18.831758 
	C55.263531,18.831758 51.300762,18.831758 47.498882,18.831758 
	C44.869343,11.054878 50.614834,12.078986 54.669556,11.759807 
	C54.669556,9.678241 54.669556,7.950802 54.669556,5.315543 
	C50.765614,6.099164 47.337799,7.317515 43.906376,7.327774 
	C40.431377,7.338164 36.952808,6.153754 33.281326,5.455707 
	C33.281326,8.279851 33.281326,10.022795 33.281326,11.741267 
	C40.998749,12.317882 40.999237,12.317882 40.999790,20.152599 
	C41.000381,28.481731 41.000027,36.810863 40.999897,45.139996 
	C40.999771,53.195820 40.999660,53.195820 33.314102,54.560928 
	C33.314102,56.301765 33.314102,58.033951 33.314102,59.999702 
	C35.438564,59.999702 37.252975,59.999702 39.931183,59.996967 
M35.134163,19.097677 
	C25.544365,19.097677 15.954567,19.097677 6.291807,19.097677 
	C6.291807,28.585606 6.291807,37.632347 6.291807,46.704609 
	C16.314268,46.704609 26.041708,46.704609 36.032497,46.704609 
	C35.935070,44.669693 35.852444,42.943901 35.747787,40.757950 
	C27.605066,40.757950 19.879253,40.757950 12.220133,40.757950 
	C12.220133,35.333855 12.220133,30.397465 12.220133,24.999386 
	C20.158579,24.999386 27.893324,24.999386 35.866440,24.999386 
	C35.866440,22.915115 35.866440,21.296597 35.134163,19.097677 
z"/>
<path fill="#8d5bef" opacity="1.000000" stroke="none" 
	d="
M39.499287,59.998337 
	C37.252975,59.999702 35.438564,59.999702 33.314102,59.999702 
	C33.314102,58.033951 33.314102,56.301765 33.314102,54.560928 
	C40.999660,53.195820 40.999771,53.195820 40.999897,45.139996 
	C41.000027,36.810863 41.000381,28.481731 40.999790,20.152599 
	C40.999237,12.317882 40.998749,12.317882 33.281326,11.741267 
	C33.281326,10.022795 33.281326,8.279851 33.281326,5.455707 
	C36.952808,6.153754 40.431377,7.338164 43.906376,7.327774 
	C47.337799,7.317515 50.765614,6.099164 54.669556,5.315543 
	C54.669556,7.950802 54.669556,9.678241 54.669556,11.759807 
	C50.614834,12.078986 44.869343,11.054878 47.498882,18.831758 
	C51.300762,18.831758 55.263531,18.831758 59.612091,18.831758 
	C59.612091,28.168091 59.612091,37.229012 59.612091,46.789490 
	C55.750599,46.789490 51.683956,46.789490 47.311745,46.789490 
	C47.311745,49.329830 47.311745,51.387325 47.311745,53.784992 
	C49.712826,53.918831 52.127506,54.053429 54.761459,54.200249 
	C54.761459,56.125320 54.761459,57.854637 54.761459,59.422768 
	C49.733891,61.728081 44.738232,57.520130 39.499287,59.998337 
M46.999363,31.559097 
	C46.999363,34.639202 46.999363,37.719311 46.999363,40.658493 
	C49.679230,40.658493 51.724716,40.658493 53.680054,40.658493 
	C53.680054,35.272060 53.680054,30.233913 53.680054,25.348591 
	C51.309074,25.348591 49.263939,25.348591 46.999363,25.348591 
	C46.999363,27.330858 46.999363,28.966717 46.999363,31.559097 
z"/>
<path fill="#8d5bef" opacity="1.000000" stroke="none" 
	d="
M35.500301,19.387877 
	C35.866440,21.296597 35.866440,22.915115 35.866440,24.999386 
	C27.893324,24.999386 20.158579,24.999386 12.220133,24.999386 
	C12.220133,30.397465 12.220133,35.333855 12.220133,40.757950 
	C19.879253,40.757950 27.605066,40.757950 35.747787,40.757950 
	C35.852444,42.943901 35.935070,44.669693 36.032497,46.704609 
	C26.041708,46.704609 16.314268,46.704609 6.291807,46.704609 
	C6.291807,37.632347 6.291807,28.585606 6.291807,19.097677 
	C15.954567,19.097677 25.544365,19.097677 35.500301,19.387877 
z"/>
<path fill="#fff0" opacity="1.000000" stroke="none" 
	d="
M46.999363,31.080835 
	C46.999363,28.966717 46.999363,27.330858 46.999363,25.348591 
	C49.263939,25.348591 51.309074,25.348591 53.680054,25.348591 
	C53.680054,30.233913 53.680054,35.272060 53.680054,40.658493 
	C51.724716,40.658493 49.679230,40.658493 46.999363,40.658493 
	C46.999363,37.719311 46.999363,34.639202 46.999363,31.080835 
z"/>
</svg>