<svg version="1.1" id="Layer_1" xmlns="http://www.w3.org/2000/svg" xmlns:xlink="http://www.w3.org/1999/xlink" x="0px" y="0px"
	 width="100%" viewBox="0 0 64 64" enable-background="new 0 0 64 64" xml:space="preserve">
<path fill="#fff0" opacity="1.000000" stroke="none" 
	d="
M39.000011,65.000000 
	C26.024467,65.000000 13.548928,65.000000 1.036694,65.000000 
	C1.036694,43.732925 1.036694,22.465776 1.036694,1.099313 
	C22.224968,1.099313 43.450554,1.099313 64.838074,1.099313 
	C64.838074,22.332338 64.838074,43.666061 64.838074,65.000000 
	C56.466721,65.000000 47.983368,65.000000 39.000011,65.000000 
M46.241028,59.978874 
	C49.029938,59.978874 51.818848,59.978874 54.736580,59.978874 
	C54.736580,57.808598 54.736580,56.079201 54.736580,54.201836 
	C52.082901,54.042213 49.676659,53.897472 47.343292,53.757118 
	C47.343292,43.995255 47.343292,34.602425 47.343292,24.737951 
	C52.752579,24.737951 57.826260,24.737951 62.772934,24.737951 
	C62.772934,22.642859 62.772934,21.030828 62.772934,18.964432 
	C57.472355,18.964432 52.378441,18.964432 47.526348,18.964432 
	C44.856888,10.964005 50.745403,12.139353 55.034996,11.699759 
	C54.939255,9.620064 54.859631,7.890475 54.738316,5.255291 
	C50.711742,6.092117 47.286045,7.349663 43.854969,7.364501 
	C40.386894,7.379499 36.913498,6.163421 33.302444,5.459338 
	C33.302444,8.321856 33.302444,10.070375 33.302444,11.795977 
	C40.967075,12.258253 40.998207,12.290212 40.999481,19.720743 
	C41.000912,28.050396 40.999859,36.380051 40.999802,44.709702 
	C40.999748,53.068684 40.999702,53.068684 33.340824,54.596378 
	C33.340824,56.362595 33.340824,58.087776 33.340824,60.739418 
	C36.943172,59.920429 40.019825,59.115597 43.143833,58.594814 
	C43.812031,58.483425 44.651970,59.402264 46.241028,59.978874 
M5.999386,39.500172 
	C5.999386,46.802650 5.999386,54.105129 5.999386,61.620361 
	C7.804847,61.959324 9.420280,62.262611 11.795408,62.708527 
	C11.795408,50.020679 11.795408,37.704773 11.795408,24.941803 
	C20.226294,24.941803 27.958557,24.941803 35.706177,24.941803 
	C35.706177,22.746708 35.706177,21.024250 35.706177,19.312542 
	C25.700731,19.312542 15.989562,19.312542 5.999386,19.312542 
	C5.999386,25.914164 5.999386,32.207302 5.999386,39.500172 
z"/>
<path fill="#8d5bef" opacity="1.000000" stroke="none" 
	d="
M45.826912,59.912685 
	C44.651970,59.402264 43.812031,58.483425 43.143833,58.594814 
	C40.019825,59.115597 36.943172,59.920429 33.340824,60.739418 
	C33.340824,58.087776 33.340824,56.362595 33.340824,54.596378 
	C40.999702,53.068684 40.999748,53.068684 40.999802,44.709702 
	C40.999859,36.380051 41.000912,28.050396 40.999481,19.720743 
	C40.998207,12.290212 40.967075,12.258253 33.302444,11.795977 
	C33.302444,10.070375 33.302444,8.321856 33.302444,5.459338 
	C36.913498,6.163421 40.386894,7.379499 43.854969,7.364501 
	C47.286045,7.349663 50.711742,6.092117 54.738316,5.255291 
	C54.859631,7.890475 54.939255,9.620064 55.034996,11.699759 
	C50.745403,12.139353 44.856888,10.964005 47.526348,18.964432 
	C52.378441,18.964432 57.472355,18.964432 62.772934,18.964432 
	C62.772934,21.030828 62.772934,22.642859 62.772934,24.737951 
	C57.826260,24.737951 52.752579,24.737951 47.343292,24.737951 
	C47.343292,34.602425 47.343292,43.995255 47.343292,53.757118 
	C49.676659,53.897472 52.082901,54.042213 54.736580,54.201836 
	C54.736580,56.079201 54.736580,57.808598 54.736580,59.978874 
	C51.818848,59.978874 49.029938,59.978874 45.826912,59.912685 
z"/>
<path fill="#8d5bef" opacity="1.000000" stroke="none" 
	d="
M5.999386,39.000305 
	C5.999386,32.207302 5.999386,25.914164 5.999386,19.312542 
	C15.989562,19.312542 25.700731,19.312542 35.706177,19.312542 
	C35.706177,21.024250 35.706177,22.746708 35.706177,24.941803 
	C27.958557,24.941803 20.226294,24.941803 11.795408,24.941803 
	C11.795408,37.704773 11.795408,50.020679 11.795408,62.708527 
	C9.420280,62.262611 7.804847,61.959324 5.999386,61.620361 
	C5.999386,54.105129 5.999386,46.802650 5.999386,39.000305 
z"/>
</svg>