<svg version="1.1" id="Layer_1" xmlns="http://www.w3.org/2000/svg" xmlns:xlink="http://www.w3.org/1999/xlink" x="0px" y="0px"
	 width="100%" viewBox="0 0 64 64" enable-background="new 0 0 64 64" xml:space="preserve">
<path fill="#fff0" opacity="1.000000" stroke="none" 
	d="
M42.000156,65.000000 
	C28.000101,65.000000 14.500102,65.000000 1.000078,65.000000 
	C1.000052,43.666702 1.000052,22.333408 1.000026,1.000084 
	C22.333292,1.000056 43.666584,1.000056 64.999908,1.000028 
	C64.999939,22.333290 64.999939,43.666580 64.999969,64.999939 
	C57.500072,65.000000 50.000141,65.000000 42.000156,65.000000 
M6.285546,12.232848 
	C6.190309,13.720389 6.064272,15.206696 6.004597,16.695662 
	C5.405421,31.645781 6.306932,31.128931 21.039061,30.971907 
	C26.029137,30.918720 27.963734,28.714022 28.001553,23.605618 
	C28.118082,7.864623 29.015326,8.817748 13.153404,9.112506 
	C11.046523,9.151657 8.967973,10.715285 6.285546,12.232848 
M10.007506,56.994785 
	C11.005277,56.996513 12.003048,56.999538 13.000818,56.999783 
	C28.844988,57.003651 29.591949,56.232170 27.957989,40.284149 
	C27.510651,35.917961 24.181513,34.654316 20.464344,35.079556 
	C15.369792,35.662361 8.804928,32.258743 6.030748,39.869686 
	C5.869845,40.311123 6.000781,40.859951 6.000648,41.358803 
	C5.999805,44.518421 5.618305,47.741714 6.130758,50.815922 
	C6.489747,52.969490 8.069728,54.919533 10.007506,56.994785 
M53.396206,14.000033 
	C46.657764,14.000033 39.919323,14.000033 32.941280,14.000033 
	C33.061619,16.356693 33.149582,18.079327 33.231602,19.685665 
	C42.410557,19.685665 51.117470,19.685665 60.046627,19.685665 
	C59.939804,17.629057 59.850456,15.908925 59.751305,14.000036 
	C57.647137,14.000036 56.004684,14.000036 53.396206,14.000033 
M41.554146,30.000031 
	C38.789330,30.000031 36.024513,30.000031 32.967514,30.000031 
	C33.068073,32.297356 33.143353,34.017109 33.217773,35.717323 
	C42.333252,35.717323 51.036770,35.717323 60.021835,35.717323 
	C59.932873,33.700722 59.856995,31.980757 59.769615,30.000031 
	C53.764431,30.000031 48.153210,30.000031 41.554146,30.000031 
M33.879257,46.096237 
	C33.505039,47.877522 33.130821,49.658806 32.717651,51.625500 
	C42.238941,51.625500 51.058117,51.625500 59.782715,51.625500 
	C59.782715,49.638424 59.782715,48.034958 59.782715,46.012657 
	C51.323063,46.012657 43.073029,46.012657 33.879257,46.096237 
z"/>
<path fill="#8d5bef" opacity="1.000000" stroke="none" 
	d="
M6.580924,11.902880 
	C8.967973,10.715285 11.046523,9.151657 13.153404,9.112506 
	C29.015326,8.817748 28.118082,7.864623 28.001553,23.605618 
	C27.963734,28.714022 26.029137,30.918720 21.039061,30.971907 
	C6.306932,31.128931 5.405421,31.645781 6.004597,16.695662 
	C6.064272,15.206696 6.190309,13.720389 6.580924,11.902880 
M22.974489,17.537762 
	C23.326536,16.543518 23.678583,15.549275 24.030630,14.555033 
	C23.080341,14.810480 21.815733,14.767265 21.237288,15.376034 
	C19.318462,17.395449 17.646669,19.649591 16.292164,21.308929 
	C13.332806,19.857065 11.577279,18.995800 8.843907,17.654806 
	C11.556755,20.967272 13.302922,23.099392 15.355678,25.605867 
	C17.940390,22.849953 20.203733,20.436693 22.974489,17.537762 
z"/>
<path fill="#8d5bef" opacity="1.000000" stroke="none" 
	d="
M9.555960,56.977631 
	C8.069728,54.919533 6.489747,52.969490 6.130758,50.815922 
	C5.618305,47.741714 5.999805,44.518421 6.000648,41.358803 
	C6.000781,40.859951 5.869845,40.311123 6.030748,39.869686 
	C8.804928,32.258743 15.369792,35.662361 20.464344,35.079556 
	C24.181513,34.654316 27.510651,35.917961 27.957989,40.284149 
	C29.591949,56.232170 28.844988,57.003651 13.000818,56.999783 
	C12.003048,56.999538 11.005277,56.996513 9.555960,56.977631 
M12.000818,47.403915 
	C13.047469,55.412411 18.726051,48.557983 21.705807,51.623627 
	C21.705807,47.372959 21.705807,44.331402 21.705807,41.299435 
	C18.363590,41.299435 15.321871,41.299435 12.000565,41.299435 
	C12.000565,43.221210 12.000565,44.845856 12.000818,47.403915 
z"/>
<path fill="#8d5bef" opacity="1.000000" stroke="none" 
	d="
M53.879219,14.000034 
	C56.004684,14.000036 57.647137,14.000036 59.751305,14.000036 
	C59.850456,15.908925 59.939804,17.629057 60.046627,19.685665 
	C51.117470,19.685665 42.410557,19.685665 33.231602,19.685665 
	C33.149582,18.079327 33.061619,16.356693 32.941280,14.000033 
	C39.919323,14.000033 46.657764,14.000033 53.879219,14.000034 
z"/>
<path fill="#8d5bef" opacity="1.000000" stroke="none" 
	d="
M42.048065,30.000031 
	C48.153210,30.000031 53.764431,30.000031 59.769615,30.000031 
	C59.856995,31.980757 59.932873,33.700722 60.021835,35.717323 
	C51.036770,35.717323 42.333252,35.717323 33.217773,35.717323 
	C33.143353,34.017109 33.068073,32.297356 32.967514,30.000031 
	C36.024513,30.000031 38.789330,30.000031 42.048065,30.000031 
z"/>
<path fill="#8d5bef" opacity="1.000000" stroke="none" 
	d="
M34.351128,46.054447 
	C43.073029,46.012657 51.323063,46.012657 59.782715,46.012657 
	C59.782715,48.034958 59.782715,49.638424 59.782715,51.625500 
	C51.058117,51.625500 42.238941,51.625500 32.717651,51.625500 
	C33.130821,49.658806 33.505039,47.877522 34.351128,46.054447 
z"/>
<path fill="#fff0" opacity="1.000000" stroke="none" 
	d="
M22.720783,17.780598 
	C20.203733,20.436693 17.940390,22.849953 15.355678,25.605867 
	C13.302922,23.099392 11.556755,20.967272 8.843907,17.654806 
	C11.577279,18.995800 13.332806,19.857065 16.292164,21.308929 
	C17.646669,19.649591 19.318462,17.395449 21.237288,15.376034 
	C21.815733,14.767265 23.080341,14.810480 24.030630,14.555033 
	C23.678583,15.549275 23.326536,16.543518 22.720783,17.780598 
z"/>
<path fill="#fff0" opacity="1.000000" stroke="none" 
	d="
M12.000691,46.937210 
	C12.000565,44.845856 12.000565,43.221210 12.000565,41.299435 
	C15.321871,41.299435 18.363590,41.299435 21.705807,41.299435 
	C21.705807,44.331402 21.705807,47.372959 21.705807,51.623627 
	C18.726051,48.557983 13.047469,55.412411 12.000691,46.937210 
z"/>
</svg>