<svg version="1.1" id="Layer_1" xmlns="http://www.w3.org/2000/svg" xmlns:xlink="http://www.w3.org/1999/xlink" x="0px" y="0px"
	 width="100%" viewBox="0 0 64 64" enable-background="new 0 0 64 64" xml:space="preserve">
<path fill="#fff0" opacity="1.000000" stroke="none" 
	d="
M40.000038,65.000000 
	C26.666685,65.000000 13.833352,65.000000 1.000014,65.000000 
	C1.000010,43.666672 1.000010,22.333345 1.000005,1.000014 
	C22.333326,1.000010 43.666653,1.000010 64.999985,1.000005 
	C64.999985,22.333326 64.999985,43.666653 64.999992,64.999985 
	C56.833351,65.000000 48.666702,65.000000 40.000038,65.000000 
M11.121545,10.326539 
	C9.643835,12.149213 7.675476,13.763369 6.793310,15.839139 
	C5.097626,19.829142 5.191489,23.999662 8.710097,27.137333 
	C11.934612,30.012754 15.512932,32.323025 20.217333,30.321108 
	C24.705784,28.411081 28.012793,25.702934 28.018208,20.270416 
	C28.027145,11.303982 21.517725,7.075142 11.121545,10.326539 
M6.270789,43.243065 
	C6.181602,44.728260 5.904184,46.230637 6.037920,47.695480 
	C6.468418,52.410797 9.221106,55.658535 13.613620,56.704884 
	C17.728045,57.684994 21.927950,57.407551 25.149944,53.629242 
	C28.417164,49.797890 28.786255,45.912617 26.808050,41.364876 
	C24.898558,36.975101 21.063669,35.175442 17.084383,35.218998 
	C12.465862,35.269547 8.139368,37.274036 6.270789,43.243065 
M51.445965,19.999943 
	C54.210796,19.999943 56.975628,19.999943 59.686180,19.999943 
	C59.686180,17.713596 59.686180,15.994954 59.686180,14.282427 
	C50.668808,14.282427 41.965305,14.282427 32.979298,14.282427 
	C33.067966,16.298567 33.143604,18.018354 33.230755,19.999943 
	C39.235748,19.999943 44.846924,19.999943 51.445965,19.999943 
M47.491577,30.000057 
	C42.740768,30.000057 37.989956,30.000057 32.959152,30.000057 
	C33.066383,32.313660 33.146118,34.033947 33.223808,35.710075 
	C42.352867,35.710075 51.056263,35.710075 60.028561,35.710075 
	C59.934238,33.681282 59.854240,31.960546 59.763092,30.000057 
	C55.731422,30.000057 52.106976,30.000057 47.491577,30.000057 
M33.002918,49.469398 
	C33.684078,50.309631 34.350441,51.866371 35.048656,51.880791 
	C43.282982,52.050850 51.522072,51.990089 60.039719,51.990089 
	C59.933521,49.687904 59.854115,47.966553 59.763592,46.004253 
	C51.416695,46.004253 43.476582,45.926640 35.542801,46.115234 
	C34.677483,46.135803 33.848637,47.690556 33.002918,49.469398 
z"/>
<path fill="#8d5bef" opacity="1.000000" stroke="none" 
	d="
M11.441525,10.063204 
	C21.517725,7.075142 28.027145,11.303982 28.018208,20.270416 
	C28.012793,25.702934 24.705784,28.411081 20.217333,30.321108 
	C15.512932,32.323025 11.934612,30.012754 8.710097,27.137333 
	C5.191489,23.999662 5.097626,19.829142 6.793310,15.839139 
	C7.675476,13.763369 9.643835,12.149213 11.441525,10.063204 
z"/>
<path fill="#8d5bef" opacity="1.000000" stroke="none" 
	d="
M6.549208,42.945541 
	C8.139368,37.274036 12.465862,35.269547 17.084383,35.218998 
	C21.063669,35.175442 24.898558,36.975101 26.808050,41.364876 
	C28.786255,45.912617 28.417164,49.797890 25.149944,53.629242 
	C21.927950,57.407551 17.728045,57.684994 13.613620,56.704884 
	C9.221106,55.658535 6.468418,52.410797 6.037920,47.695480 
	C5.904184,46.230637 6.181602,44.728260 6.549208,42.945541 
M21.583830,45.081928 
	C19.633041,43.951283 17.599844,41.852623 15.758653,42.009365 
	C14.390829,42.125809 12.214240,45.258419 12.353323,46.879848 
	C12.480860,48.366688 15.092979,50.532333 16.847919,50.791729 
	C19.971043,51.253357 21.891830,49.143764 21.583830,45.081928 
z"/>
<path fill="#8d5bef" opacity="1.000000" stroke="none" 
	d="
M50.952030,19.999943 
	C44.846924,19.999943 39.235748,19.999943 33.230755,19.999943 
	C33.143604,18.018354 33.067966,16.298567 32.979298,14.282427 
	C41.965305,14.282427 50.668808,14.282427 59.686180,14.282427 
	C59.686180,15.994954 59.686180,17.713596 59.686180,19.999943 
	C56.975628,19.999943 54.210796,19.999943 50.952030,19.999943 
z"/>
<path fill="#8d5bef" opacity="1.000000" stroke="none" 
	d="
M47.987053,30.000057 
	C52.106976,30.000057 55.731422,30.000057 59.763092,30.000057 
	C59.854240,31.960546 59.934238,33.681282 60.028561,35.710075 
	C51.056263,35.710075 42.352867,35.710075 33.223808,35.710075 
	C33.146118,34.033947 33.066383,32.313660 32.959152,30.000057 
	C37.989956,30.000057 42.740768,30.000057 47.987053,30.000057 
z"/>
<path fill="#8d5bef" opacity="1.000000" stroke="none" 
	d="
M33.002899,49.001553 
	C33.848637,47.690556 34.677483,46.135803 35.542801,46.115234 
	C43.476582,45.926640 51.416695,46.004253 59.763592,46.004253 
	C59.854115,47.966553 59.933521,49.687904 60.039719,51.990089 
	C51.522072,51.990089 43.282982,52.050850 35.048656,51.880791 
	C34.350441,51.866371 33.684078,50.309631 33.002899,49.001553 
z"/>
<path fill="#fff0" opacity="1.000000" stroke="none" 
	d="
M21.762379,45.429253 
	C21.891830,49.143764 19.971043,51.253357 16.847919,50.791729 
	C15.092979,50.532333 12.480860,48.366688 12.353323,46.879848 
	C12.214240,45.258419 14.390829,42.125809 15.758653,42.009365 
	C17.599844,41.852623 19.633041,43.951283 21.762379,45.429253 
z"/>
</svg>