<svg version="1.1" id="Layer_1" xmlns="http://www.w3.org/2000/svg" xmlns:xlink="http://www.w3.org/1999/xlink" x="0px" y="0px"
	 width="100%" viewBox="0 0 64 64" enable-background="new 0 0 64 64" xml:space="preserve">
<path fill="#fff0" opacity="1.000000" stroke="none" 
	d="
M44.000557,65.000000 
	C29.333736,65.000000 15.167089,65.000000 1.000331,65.000000 
	C1.000221,43.666843 1.000221,22.333683 1.000110,1.000394 
	C22.333130,1.000262 43.666260,1.000262 64.999542,1.000131 
	C64.999695,22.333101 64.999695,43.666203 64.999847,64.999649 
	C58.166912,65.000000 51.333820,65.000000 44.000557,65.000000 
M58.178848,46.273506 
	C58.785412,45.011402 59.897358,43.757412 59.917770,42.485901 
	C60.067242,33.174801 60.101387,23.858557 59.954300,14.547372 
	C59.879833,9.833341 55.803711,6.057569 50.931606,6.025962 
	C38.957603,5.948284 26.982327,5.941397 15.008456,6.028620 
	C9.978813,6.065259 6.058624,10.039407 6.025438,15.101764 
	C5.946943,27.075756 5.933961,39.051182 6.036545,51.024811 
	C6.072447,55.215302 8.034511,58.436054 12.427691,59.062138 
	C16.786594,59.683338 21.287556,59.358479 25.625656,60.065525 
	C39.106190,62.262646 49.864983,58.231266 58.178848,46.273506 
z"/>
<path fill="#8d5bef" opacity="1.000000" stroke="none" 
	d="
M57.929260,46.567245 
	C49.864983,58.231266 39.106190,62.262646 25.625656,60.065525 
	C21.287556,59.358479 16.786594,59.683338 12.427691,59.062138 
	C8.034511,58.436054 6.072447,55.215302 6.036545,51.024811 
	C5.933961,39.051182 5.946943,27.075756 6.025438,15.101764 
	C6.058624,10.039407 9.978813,6.065259 15.008456,6.028620 
	C26.982327,5.941397 38.957603,5.948284 50.931606,6.025962 
	C55.803711,6.057569 59.879833,9.833341 59.954300,14.547372 
	C60.101387,23.858557 60.067242,33.174801 59.917770,42.485901 
	C59.897358,43.757412 58.785412,45.011402 57.929260,46.567245 
M32.446846,54.000118 
	C35.232578,54.000118 38.018307,54.000118 39.485218,54.000118 
	C41.262772,49.856644 41.904972,45.934135 44.195755,43.708324 
	C46.445053,41.522823 50.369560,41.061424 53.999290,39.675232 
	C53.999290,32.510124 53.967190,24.693594 54.013485,16.877529 
	C54.035065,13.234626 52.161823,11.948952 48.721748,11.973970 
	C38.555813,12.047904 28.388985,12.006845 18.222519,11.997034 
	C14.200232,11.993153 12.056673,14.035913 12.026330,17.995613 
	C11.949703,27.994837 12.022060,37.995106 11.990544,47.994816 
	C11.977785,52.043053 13.897449,54.033222 17.960600,54.006378 
	C22.460316,53.976646 26.960384,53.999928 32.446846,54.000118 
z"/>
<path fill="#fff0" opacity="1.000000" stroke="none" 
	d="
M31.953571,54.000118 
	C26.960384,53.999928 22.460316,53.976646 17.960600,54.006378 
	C13.897449,54.033222 11.977785,52.043053 11.990544,47.994816 
	C12.022060,37.995106 11.949703,27.994837 12.026330,17.995613 
	C12.056673,14.035913 14.200232,11.993153 18.222519,11.997034 
	C28.388985,12.006845 38.555813,12.047904 48.721748,11.973970 
	C52.161823,11.948952 54.035065,13.234626 54.013485,16.877529 
	C53.967190,24.693594 53.999290,32.510124 53.999290,39.675232 
	C50.369560,41.061424 46.445053,41.522823 44.195755,43.708324 
	C41.904972,45.934135 41.262772,49.856644 39.485218,54.000118 
	C38.018307,54.000118 35.232578,54.000118 31.953571,54.000118 
M19.135031,24.324194 
	C28.303816,24.324194 37.472599,24.324194 46.723816,24.324194 
	C46.723816,22.780626 46.723816,21.061924 46.723816,19.259598 
	C37.409508,19.259598 28.369080,19.259598 19.018908,19.259598 
	C19.018908,20.808584 19.018908,22.101490 19.135031,24.324194 
M31.509792,35.999882 
	C36.592510,35.999882 41.675228,35.999882 47.039433,35.999882 
	C46.932758,33.687710 46.853394,31.967516 46.775978,30.289501 
	C37.315483,30.289501 28.279945,30.289501 18.973436,30.289501 
	C19.067125,32.313404 19.146757,34.033623 19.237780,35.999882 
	C23.269871,35.999882 26.894590,35.999882 31.509792,35.999882 
M19.019356,45.393284 
	C19.505028,45.914055 19.981005,46.876492 20.477871,46.887402 
	C25.553194,46.998829 30.631914,46.955593 35.702663,46.955593 
	C35.702663,44.729668 35.702663,43.017410 35.702663,41.001530 
	C30.970392,41.001530 26.520088,41.171688 22.090702,40.940712 
	C19.217888,40.790901 18.698339,42.123497 19.019356,45.393284 
z"/>
<path fill="#8d5bef" opacity="1.000000" stroke="none" 
	d="
M19.076969,23.859295 
	C19.018908,22.101490 19.018908,20.808584 19.018908,19.259598 
	C28.369080,19.259598 37.409508,19.259598 46.723816,19.259598 
	C46.723816,21.061924 46.723816,22.780626 46.723816,24.324194 
	C37.472599,24.324194 28.303816,24.324194 19.076969,23.859295 
z"/>
<path fill="#8d5bef" opacity="1.000000" stroke="none" 
	d="
M31.014549,35.999882 
	C26.894590,35.999882 23.269871,35.999882 19.237780,35.999882 
	C19.146757,34.033623 19.067125,32.313404 18.973436,30.289501 
	C28.279945,30.289501 37.315483,30.289501 46.775978,30.289501 
	C46.853394,31.967516 46.932758,33.687710 47.039433,35.999882 
	C41.675228,35.999882 36.592510,35.999882 31.014549,35.999882 
z"/>
<path fill="#8d5bef" opacity="1.000000" stroke="none" 
	d="
M19.011600,44.929230 
	C18.698339,42.123497 19.217888,40.790901 22.090702,40.940712 
	C26.520088,41.171688 30.970392,41.001530 35.702663,41.001530 
	C35.702663,43.017410 35.702663,44.729668 35.702663,46.955593 
	C30.631914,46.955593 25.553194,46.998829 20.477871,46.887402 
	C19.981005,46.876492 19.505028,45.914055 19.011600,44.929230 
z"/>
</svg>